<?xml version="1.0" encoding="UTF-8"?>
<svg id="Icon" xmlns="http://www.w3.org/2000/svg" xmlns:xlink="http://www.w3.org/1999/xlink" version="1.1" viewBox="0 0 171.08 124.75">
  <!-- Generator: Adobe Illustrator 29.6.1, SVG Export Plug-In . SVG Version: 2.1.1 Build 9)  -->
  <defs>
    <style>
      .st0 {
        fill: none;
      }

      .st1 {
        fill: #9efffb;
      }

      .st1, .st2, .st3, .st4, .st5, .st6, .st7, .st8, .st9 {
        fill-rule: evenodd;
      }

      .st1, .st3, .st4, .st5, .st10 {
        isolation: isolate;
      }

      .st1, .st3, .st5, .st10 {
        opacity: .3;
      }

      .st2 {
        fill: #fff;
      }

      .st11 {
        fill: url(#linear-gradient3);
      }

      .st3 {
        fill: #8cfffb;
      }

      .st12 {
        clip-path: url(#clippath-1);
      }

      .st4 {
        fill: #0d112d;
        opacity: .2;
      }

      .st5 {
        fill: #22fff7;
      }

      .st6 {
        fill: url(#linear-gradient);
      }

      .st7 {
        fill: url(#linear-gradient1);
      }

      .st8 {
        fill: url(#linear-gradient4);
      }

      .st9 {
        fill: url(#linear-gradient5);
      }

      .st10 {
        fill: url(#linear-gradient2);
      }

      .st13 {
        clip-path: url(#clippath);
      }
    </style>
    <linearGradient id="linear-gradient" x1="-13.72" y1="31.27" x2="354.25" y2="115.84" gradientTransform="translate(0 126) scale(1 -1)" gradientUnits="userSpaceOnUse">
      <stop offset="0" stop-color="#00c4ff"/>
      <stop offset=".22" stop-color="#02e2aa"/>
      <stop offset=".39" stop-color="#73afe7"/>
      <stop offset=".59" stop-color="#94c2ed"/>
      <stop offset="1" stop-color="#60fff9"/>
    </linearGradient>
    <linearGradient id="linear-gradient1" x1="-5.47" y1="61.53" x2="328.28" y2="157.07" gradientTransform="translate(0 126) scale(1 -1)" gradientUnits="userSpaceOnUse">
      <stop offset="0" stop-color="#00c4ff"/>
      <stop offset=".22" stop-color="#02e2aa"/>
      <stop offset=".39" stop-color="#73afe7"/>
      <stop offset=".59" stop-color="#94c2ed"/>
      <stop offset="1" stop-color="#60fff9"/>
    </linearGradient>
    <clipPath id="clippath">
      <path class="st0" d="M27.09,35.05c-10.62,19.58-3.22,34.24,16.33,33.57,27.85-.95,52.98-23.02,98.51-27.26-24.5-24-71.69,16.24-101.01,17.9-14.79.84-18.46-10.9-13.82-24.22h0Z"/>
    </clipPath>
    <linearGradient id="linear-gradient2" x1="12.35" y1="71.57" x2="179.55" y2="99.33" gradientTransform="translate(0 126) scale(1 -1)" gradientUnits="userSpaceOnUse">
      <stop offset="0" stop-color="#73afe7"/>
      <stop offset="1" stop-color="#60fff9"/>
    </linearGradient>
    <clipPath id="clippath-1">
      <path class="st0" d="M131.86,11.48c11.11,2.75,18.68,10.9,10.25,22.32,12.4-11.37,7.25-24.89-4.74-30.1-9.35-4.06-22.48-3.78-33.42-.16-6.5-2.3-15.59,1.89-22.87,1.89-17.28,0-30.82,1.59-42.12,12.94-13.52,16.37-5.43,27.25,13.81,20.81,25.76-8.61,48.75-35.21,79.08-27.7h0Z"/>
    </clipPath>
    <linearGradient id="linear-gradient3" x1="90.57" y1="91.37" x2="85.5" y2="193.2" gradientTransform="translate(0 126) scale(1 -1)" gradientUnits="userSpaceOnUse">
      <stop offset="0" stop-color="#00c4ff"/>
      <stop offset=".22" stop-color="#02e2aa"/>
      <stop offset=".39" stop-color="#73afe7"/>
      <stop offset=".59" stop-color="#94c2ed"/>
      <stop offset="1" stop-color="#60fff9"/>
    </linearGradient>
    <linearGradient id="linear-gradient4" x1="70.73" y1="89.6" x2="65.89" y2="166.1" gradientTransform="translate(0 126) scale(1 -1)" gradientUnits="userSpaceOnUse">
      <stop offset="0" stop-color="#00c4ff"/>
      <stop offset=".22" stop-color="#02e2aa"/>
      <stop offset=".39" stop-color="#73afe7"/>
      <stop offset=".59" stop-color="#94c2ed"/>
      <stop offset="1" stop-color="#60fff9"/>
    </linearGradient>
    <linearGradient id="linear-gradient5" x1="97.42" y1="-20.3" x2="96.13" y2="175.96" gradientTransform="translate(0 126) scale(1 -1)" gradientUnits="userSpaceOnUse">
      <stop offset="0" stop-color="#00c4ff"/>
      <stop offset=".22" stop-color="#02e2aa"/>
      <stop offset=".39" stop-color="#73afe7"/>
      <stop offset=".59" stop-color="#94c2ed"/>
      <stop offset="1" stop-color="#60fff9"/>
    </linearGradient>
  </defs>
  <path class="st6" d="M133.97,49.81c-38.9,10.19-69.38,34.95-104.31,36.61-24.34.25-26.23-17.62-13.95-25.26-27.93,13.13-19.08,51.8,30.21,46.19,34.37-3.91,59.58-32.07,90.83-46.62,29.82-13.88,39.33,11.74,14.54,21.24,30.4-8.02,26.63-43.68-17.32-32.16"/>
  <path class="st1" d="M145.37,57.63c22.8-5.62,28.14,15.83,5.92,24.34,27.94-7.37,27.02-38.08-7.44-34.06.75,3.16,1.26,6.4,1.51,9.72"/>
  <path class="st3" d="M25.55,86.28c-20.4-1.7-21.38-17.93-9.84-25.12-26.86,12.62-19.69,48.86,24.72,46.64-6.37-5.99-11.48-13.31-14.89-21.52"/>
  <path class="st7" d="M141.92,41.37c-6.52-17.2-20.24-20.46-35.37-17.25-21.86,4.64-36.8,19.53-58.15,25.72-13.93,4.04-26.84,3.33-21.32-14.79-10.62,19.58-3.22,34.24,16.33,33.57,27.85-.95,52.98-23.02,98.51-27.26"/>
  <g class="st13">
    <rect class="st10" x="16.46" y="17.37" width="125.46" height="51.93"/>
  </g>
  <g class="st12">
    <rect class="st11" x="25.44" y="-.36" width="129.07" height="45.99"/>
  </g>
  <path class="st8" d="M103.95,3.55c-6.5-2.3-13.49-3.55-20.78-3.55-17.28,0-32.92,7.02-44.21,18.37-9.26,14-.89,19.58,9.45,16.23,15.04-4.86,38.18-25.46,55.54-31.06"/>
  <path class="st9" d="M145.55,62.37c-36.36,14.54-53.03,50.01-97.02,51.87,9.91,6.63,21.83,10.5,34.65,10.5,34.45,0,62.37-27.93,62.37-62.37"/>
  <path class="st4" d="M145.55,62.37c-36.36,14.54-53.03,50.01-97.02,51.87,26.6,6.76,55.77-18.16,73.51-29.97,10.86-7.23,20.64-3.14,13.67,11.73,6.22-9.71,9.84-21.25,9.84-33.64"/>
  <path class="st2" d="M67.54,15.87c.66.37,1.29.84,1.85,1.41.57.57,1.03,1.19,1.41,1.85.37-.66.84-1.29,1.41-1.85.56-.56,1.19-1.03,1.85-1.41-.66-.37-1.29-.84-1.85-1.41-.57-.57-1.03-1.19-1.41-1.85-.37.66-.84,1.29-1.41,1.85-.56.57-1.19,1.03-1.85,1.41"/>
  <path class="st2" d="M100.36,108.03c1.8,0,3.26,1.46,3.26,3.26s-1.46,3.26-3.26,3.26-3.26-1.46-3.26-3.26,1.46-3.26,3.26-3.26"/>
  <path class="st2" d="M61.26,94.62c1.8,0,3.26,1.46,3.26,3.26s-1.46,3.26-3.26,3.26-3.26-1.46-3.26-3.26,1.46-3.26,3.26-3.26"/>
  <path class="st2" d="M105.57,33.91c1.8,0,3.26,1.46,3.26,3.26s-1.46,3.26-3.26,3.26-3.26-1.46-3.26-3.26,1.46-3.26,3.26-3.26"/>
  <path class="st2" d="M123.83,84.99c.93.52,1.8,1.18,2.59,1.97.79.79,1.45,1.66,1.97,2.59.52-.93,1.18-1.8,1.97-2.59.79-.79,1.66-1.45,2.59-1.97-.93-.52-1.8-1.18-2.59-1.97s-1.45-1.66-1.97-2.59c-.52.93-1.18,1.8-1.97,2.59-.79.79-1.67,1.45-2.59,1.97"/>
  <path class="st5" d="M103.95,3.55c4.83,1.7,9.38,3.99,13.58,6.76,4.61-.37,9.37-.05,14.33,1.18,11.11,2.75,18.68,10.9,10.25,22.32,12.4-11.37,7.25-24.89-4.74-30.1-9.35-4.06-22.48-3.78-33.42-.16"/>
  <path class="st4" d="M29.66,86.42c-24.34.25-26.23-17.62-13.95-25.26-19.84,11.01-14.8,38.74,17.25,36.96,31.9-1.77,77.81-36.1,107.03-44.48,27.45-7.87,40.92,16.98,11.3,28.32,12.78-3.37,19.52-11.62,19.78-19.2v-.89c-.33-10.08-12.34-18.56-37.1-12.07-38.9,10.19-69.38,34.95-104.31,36.61"/>
</svg>